<?xml version="1.0" standalone="no"?><!DOCTYPE svg PUBLIC "-//W3C//DTD SVG 1.1//EN" "http://www.w3.org/Graphics/SVG/1.1/DTD/svg11.dtd"><svg t="1540183750746" class="icon" style="" viewBox="0 0 1024 1024" version="1.1" xmlns="http://www.w3.org/2000/svg" p-id="1007" xmlns:xlink="http://www.w3.org/1999/xlink" width="14" height="16"><defs><style type="text/css"></style></defs><path d="M452.712 803.986h118.577v53.359H452.712z" fill="#DF3A49" p-id="1008"></path><path d="M721.098 64.296H302.902c-37.441 0-67.902 28.24-67.902 62.951v769.506c0 34.711 30.46 62.951 67.902 62.951h418.196c37.441 0 67.902-28.24 67.902-62.951V127.247c0-34.712-30.461-62.951-67.902-62.951zM735 896.753c0 4.226-5.945 8.951-13.902 8.951H302.902c-7.957 0-13.902-4.726-13.902-8.951V755.176h446v141.577z m0-202.244H289V229.682h446v464.827z m0-525.493H289v-41.769c0-4.226 5.945-8.951 13.902-8.951h418.196c7.957 0 13.902 4.726 13.902 8.951v41.769z" fill="#DF3A49" p-id="1009"></path></svg>